Patient4_TMGait_0pt3_03_left_15_EMG.mot
version=1
nRows=39
nColumns=33
inDegrees=no
endheader
time	1LAddLong	2LGlutMax	3LGlutMed	4LIliopsoas	5LSemiMemb	6LBicFemLong	7LRecFem	8LVastMed	9LVastLat	10LGasMed	11LTibAnt	12lTibPost	13LPeroneusLong	14LSol	15LExtDigLong	16LFlexDigLong	17RAddLong	18RGlutMax	19RGlutMed	20RIliopsoas	21RSemiMemb	22RBicFemLong	23RRecFem	24RVastMed	25RVastLat	26RGasMed	27RTibAnt	28RTibPost	29RPeroneusLong	30RSol	31RExtDigLong	32RFlexDigLong
29.415	0.004425	-0.004578	-0.005493	0.018768	-0.012665	0.020447	-0.065002	-0.002289	-0.008545	-0.00946	0.002899	-0.000916	0.003967	-0.022583	0.056458	0.001526	0.035553	-0.061493	-0.41931	-0.014191	-0.16281	-0.10346	-0.15701	0.15152	-0.27649	-0.072479	0.006714	-0.13107	0.053711	1.3477	-0.000305	-0.004883
29.416	-0.019226	0.035706	0.007782	0.000458	-0.007935	0.017853	-0.041504	0.007324	-0.021515	-0.024719	-0.004272	0.003052	0.014954	-0.007477	0.06897	0.008545	-0.028992	-0.10788	-0.33279	-0.013733	0.38498	-0.084534	0.008392	0.023804	-0.34058	-0.009918	0.031281	-0.070343	0.12344	1.2653	-0.000305	-0.003967
29.417	0.029907	0.017548	-0.000916	-0.007477	-0.015869	0.025177	-0.054474	0.005493	-0.007935	-0.028687	0.003052	-0.003815	0.042725	-0.008392	0.072632	0.004578	-0.028687	0.005341	-0.71976	-0.041504	0.33035	-0.095367	0.23056	-0.11078	-0.44861	0.014801	0.031738	0.001526	0.41153	1.2477	-0.003662	0.003204
29.418	0.018616	0.030518	-0.005188	-0.014496	-0.00885	0.015564	-0.04364	0.003357	-0.010071	-0.010071	0.010681	0.001831	0.02182	-0.016937	0.064392	0.005188	-0.02655	0.024414	-0.91873	-0.036163	0.2681	-0.11414	0.22171	-0.32822	-0.5603	-0.013885	0.06012	0.051727	-0.28	0.96573	-0.003815	0.004578
29.419	-0.011749	0.01236	-0.01358	-0.00061	-0.011597	0.017242	-0.057983	0.028076	-0.015106	-0.005493	0.027313	-0.003967	0.00824	-0.024567	0.049591	-0.005035	-0.022278	-0.12695	-0.41153	0.031586	-0.080261	0.057526	0.2771	-0.43411	-0.4985	-0.041199	0.070343	0.035858	-0.76355	-0.16251	-0.002136	0.001221
29.42	0.008392	-0.001221	-0.052948	0.008087	-0.017548	0.018158	-0.048981	-0.008392	-0.02121	-0.015106	0.023193	0	0.009766	-0.01709	0.044098	0.005188	-0.055542	-0.069885	0.80612	0.019073	-0.13763	0.07431	0.2066	-0.085602	-0.27618	0.028992	0.077057	-0.12161	-0.35599	-0.09903	-0.000763	0.001373
29.421	-0.011902	-0.016632	-0.069885	0.024719	-0.013733	0.024414	-0.054932	0.007019	-0.023956	0.002441	0.06485	-0.001984	0.007172	-0.041809	0.049438	0.002136	-0.055084	-0.068054	1.017	-0.062714	-0.23468	0.058289	0.3038	0.29159	-0.1506	0.041504	-0.020447	-0.21149	0.61829	0.034027	-0.005188	0.002594
29.422	0.004578	-0.014191	-0.059509	0.01297	-0.009003	0.02121	-0.056915	0.053406	-0.023804	-0.009918	0.093536	-0.000763	-0.006866	-0.016174	0.058136	0.000153	-0.054779	-0.014496	0.25162	-0.065002	0.28702	0.06073	0.32242	0.32166	0.14816	0.065613	-0.10223	0.052185	-0.13901	0.081787	-0.002899	0.006409
29.423	0.007629	0.005646	-0.015259	-0.00473	-0.011597	0.021667	-0.04776	-0.033875	-0.018921	-0.014648	0.076141	-0.003052	-0.012817	-0.029297	0.032654	0.00351	0.009918	0.069275	0.33661	-0.002136	0.16602	0.027313	0.24139	0.18692	0.10407	0.062103	-0.071411	0.019379	-0.042114	-0.014191	-0.006714	0.001221
29.424	0.001984	0.00824	-0.048523	0.006256	-0.016479	0.019684	-0.046692	0.000763	-0.008392	-0.029449	0.009766	-0.012665	0.034332	-0.029297	-0.009003	0.006866	0.027008	0.079651	0.11307	0.055695	-0.016022	-0.005341	-0.029297	0.085297	0.007477	0.018311	0.015259	-0.002136	0.7579	-0.40176	-0.001526	-0.000763
29.425	0.00061	0.026398	-0.095215	-0.003357	-0.010071	0.028992	-0.04303	0.002747	-0.012665	-0.026703	-0.082703	-0.002136	0.092316	-0.026093	-0.055695	0.000916	0.038605	0.041046	0.31784	-0.01236	-0.006714	-0.014191	-0.35843	0.71014	0.04303	0.023804	-0.002136	-0.039215	1.0901	-0.53482	-0.002441	-0.00824
29.426	0.001984	0.041504	-0.084991	0.011902	-0.009918	-0.005493	-0.057678	-0.00061	-0.018311	-0.013733	-0.02655	-0.004425	0.036774	-0.027008	-0.016479	0.002747	0.03006	0.046844	0.21072	-0.072021	-0.065765	-0.027771	-0.55176	0.84671	0.13534	0.040588	-0.040436	-0.046997	0.52399	-0.082855	-0.002594	-0.010223
29.427	0.005188	0.008698	0.02533	-0.007324	-0.008087	0.016022	-0.050812	0.006104	-0.016479	-0.007477	0.093536	0.001373	-0.000763	-0.011902	-0.006409	-0.007935	0.040894	0.19608	0.16907	-0.040894	0.077515	-0.032959	-0.51361	0.43045	0.14404	0.050964	-0.06897	-0.046082	-0.075531	-0.026093	-0.002136	-0.011749
29.428	0.000916	0.026093	0.15732	-0.01297	-0.013733	0.006104	-0.050354	0.000763	-0.011292	-0.006866	0.19318	-0.006866	0.001831	0.012207	-0.001678	0.001373	0.050201	0.19684	-0.063477	0.010223	0.22385	-0.11078	-0.20096	-0.022583	0.035706	0.040894	-0.041046	-0.03891	-0.57739	0.20981	-0.00061	-0.015259
29.429	0.007324	-0.00473	0.11658	0.003662	-0.00885	0.03067	-0.063934	0.002136	-0.00946	-0.010376	0.14221	-0.002594	0.011292	0.023651	0.058136	-0.007324	0.060577	0.063171	-0.36255	-0.00412	-0.010681	-0.16464	-0.072784	-0.5455	0.019531	0.043793	0.056152	-0.04776	-0.74524	0.20874	-0.004425	-0.011139
29.43	0.006866	-0.021973	0.073853	0.005188	-0.01297	0.015259	-0.045624	-0.000763	0.000153	-0.006256	-0.048981	-0.008087	0.005646	0.027466	0.071106	0.006714	0.045929	0.017853	-0.23651	-0.03891	-0.38681	-0.003967	-0.002136	-0.85175	0.036163	0.041656	0.084076	-0.046844	-0.23804	0.20309	-0.004578	-0.005493
29.431	0.005798	-0.036774	0.052338	-0.007629	-0.01709	0.02655	-0.034637	-0.001526	-0.003967	-0.013885	-0.072327	-0.003662	0.006104	0.044098	0.03479	0.003967	-0.04715	0.019836	-0.19379	-0.039825	-0.4422	0.11353	-0.021667	-0.71503	0.057068	0.046082	0.069275	-0.019989	-0.051117	0.14801	-0.002136	-0.011902
29.432	0.002747	-0.026703	0.020294	0.008545	-0.005493	0.039825	-0.037231	0.000916	-0.013428	-0.015259	0.022888	-0.00351	0.024567	-0.002441	-0.062103	0	-0.095215	0.071564	-0.37033	-0.02594	0.15305	0.08606	0.041656	-0.31006	-0.013885	0.051117	0.049286	0.014496	-0.23972	-0.13763	0.001526	0.000763
29.433	0.004578	-0.036469	0.004883	0.00946	-0.00885	0.024109	-0.038147	-0.001984	-0.016022	-0.019531	0.080109	-0.001678	0.024872	-0.067749	-0.07843	0.006866	-0.063019	0.093536	-0.52139	0.047913	0.16647	0.089417	0.036469	-0.058746	0.07019	0.032043	0.04364	0.018768	-0.38437	-0.4303	-0.006866	-0.005951
29.434	-0.005035	-0.036011	0.015411	0.003357	-0.019226	0.037079	-0.010376	0.003204	-0.011292	-0.013123	-0.092621	-0.001678	0.036621	-0.087585	-0.027008	-0.005035	-0.028687	0.071259	-0.31677	0.11902	0.1236	0.064697	0.006256	-0.022888	0.041046	0.046539	0.10269	-0.13199	-0.44174	-0.36545	0.002594	-0.011292
29.435	0.000153	-0.013428	0.011292	0.009003	-0.014648	0.027924	-0.040741	0.005188	-0.010376	-0.014801	-0.14771	-0.006714	0.033264	-0.088196	0.03418	0.005646	0.003357	0.18951	-0.2179	0.072327	0.22903	-0.063171	0.059052	-0.079498	0.026855	0.047302	0.075836	0.037079	0.008698	-0.36209	-0.001678	-0.010681
29.436	0.000763	-0.022736	0.005798	0.005035	-0.012665	0.016022	-0.03952	0.008545	-0.00473	-0.011292	-0.049744	0.001526	0.012207	-0.051727	0.033112	0.010223	0.005493	0.3154	0.013275	0.049438	0.13718	-0.096893	0.068665	0.00351	0.044556	0.066833	0.032501	0.025635	0.096893	-0.48553	-0.005341	-0.006866
29.437	0.003815	-0.06424	-0.016022	0.006866	-0.012665	0.039978	-0.028992	0.00946	-0.014191	-0.014648	-0.02182	-0.005493	0.009766	-0.025787	-0.018616	0.004883	0.023956	0.37598	0.22995	0.063477	-0.072327	-0.046234	0.088806	0.018005	0.054626	0.068207	0.030212	-0.50079	-0.74493	-0.79758	-0.000916	-0.006104
29.438	0.001678	-0.061951	0.018463	0.006714	-0.009155	0.026398	-0.036774	0.007324	-0.013428	-0.023804	-0.001068	-0.007019	0.016479	0.001068	-0.031586	0.00473	0.031891	0.34866	0.22797	0.059509	-0.046234	-0.045776	0.072021	-0.087891	0.020294	0.099487	-0.018463	-0.43045	-1.4078	-0.94528	-0.00061	0.001831
29.439	0.002441	-0.029449	0.008545	0.004883	0.000153	0.022125	-0.030823	0.006409	-0.010529	-0.008698	-0.005341	-0.000153	0.023041	-0.018616	-0.017242	-0.003204	0.015259	0.37628	0.003662	-0.071564	-0.099182	-0.059967	0.16937	-0.22736	-0.007477	0.10056	-0.02594	0.15305	-1.3818	-1.1398	-0.003815	-0.005493
29.44	0.006866	-0.022583	-0.014954	0.007477	-0.00412	0.012512	-0.042725	0.005951	-0.013123	-0.010681	-0.018768	-0.003662	0.017395	-0.015869	-0.005951	0.00412	0.003662	0.50095	-0.46143	-0.34515	-0.083313	-0.035095	0.23727	-0.20187	-0.014038	0.093231	0.001068	0.19669	-0.72739	-0.51361	-0.002899	-0.011902
29.441	-0.002594	-0.028839	-0.031433	0	-0.011139	0.041351	-0.031891	0.00885	-0.018463	-0.002747	-0.018158	-0.005798	0.019531	-0.016174	-0.001068	-0.004425	-0.016479	0.52719	-0.61493	-0.40466	0.022278	-0.087891	0.18906	-0.14023	0.032349	-0.041809	0.020142	-0.051575	0.069885	-0.10437	-0.001526	-0.016632
29.442	0.002441	-0.034027	0.007782	0.012207	-0.008545	0.002594	-0.045471	0.001068	-0.015717	-0.017242	-0.006866	-0.002441	0.015717	-0.024109	0.018921	0.002899	-0.007629	0.33722	-0.43411	-0.20004	0.13504	-0.027771	0.13473	-0.20859	0.071564	-0.14801	0.001068	0.29846	0.83328	-0.05722	-0.003357	-0.014191
29.443	0.007019	-0.021973	0.024109	0.00885	-0.01297	0.023956	-0.038452	0.013123	-0.018311	0.000458	0.005035	-0.003357	-0.001068	-0.016479	0.023804	0.001373	-0.00351	0.033112	-0.12283	0.020599	0.16937	-0.031281	0.075378	-0.177	0.071869	-0.13138	-0.024261	-0.062256	0.88776	-0.61874	-0.003052	-0.016632
29.444	0.005798	-0.012665	0.027161	0.010376	-0.01236	0.030212	-0.032196	-0.00061	-0.018921	-0.00885	0.019836	-0.002899	-0.006866	-0.009766	0.02243	0.00061	-0.001373	-0.13367	0.44723	0.2565	-0.17395	0.066071	-0.042419	0.10452	0.087128	-0.15152	-0.042419	-0.53909	0.70267	-0.31158	0	-0.026703
29.445	0.00351	-0.040588	0.036316	0.005493	-0.004578	0.018616	-0.032501	-0.001221	-0.016937	-0.010376	0.000305	-0.009766	0.001221	0.002899	-0.004272	-0.000916	0.007782	-0.25162	0.007782	0.49027	-0.34531	0.074921	-0.10895	0.27695	0.027161	-0.10971	0.007019	0.44739	0.38589	0.88104	-0.000153	-0.016937
29.446	0.001984	-0.023651	0.026245	0.007172	-0.008545	0.005951	-0.022583	0.003357	-0.028534	-0.028534	0.029602	-0.004425	0.032501	0.008087	-0.029144	-0.013428	-0.029907	-0.19653	-0.44205	0.41443	-0.001831	0.029297	-0.14908	0.59952	0.044861	-0.001221	-0.005341	0.44601	0.36606	1.2488	-0.001373	-0.016479
29.447	0.00885	-0.025482	-0.037842	0.016632	-0.009155	0.019684	-0.019989	0.003967	-0.024414	-0.010071	0.01297	-0.002594	0.013885	-0.006256	0.039063	0.001831	-0.060577	-0.19928	-0.61203	0.057831	0.056305	0.014954	0.01709	0.40375	-0.045471	0.050964	-0.026855	0.17258	0.27725	1.2712	0.005798	-0.00824
29.448	0.000153	-0.033722	0.012512	0.02182	-0.015869	0.01358	-0.031586	-0.003967	-0.02655	-0.006104	0.031738	-0.007477	0.006409	-0.009155	0.11002	0.001373	-0.039063	-0.12207	-0.50171	-0.14465	0.078888	0.002289	0.11078	0.15091	-0.090179	0.013428	-0.005798	-0.29602	0.43106	0.86716	-0.002899	-0.012207
29.449	0.003967	-0.027161	-0.022278	0.012665	-0.015717	0.005798	-0.010529	0.010071	-0.015106	-0.014801	0.044556	0.000916	0.011597	0.009003	-0.022888	-0.007019	0.005646	0.005951	0.26413	-0.09201	-0.032806	-0.1181	0.19333	0.022736	-0.007629	-0.028687	-0.000763	-0.067902	0.46524	0.14801	-0.004883	-0.006409
29.45	0.001526	-0.049438	-0.052032	-0.004578	-0.01236	0.009003	-0.041809	0.002136	-0.028992	-0.004425	0.021973	-0.005646	0.007324	0.006561	-0.051575	0.003052	0.020752	0.04303	0.32394	0.054626	-0.057678	-0.18127	0.16586	-0.098572	-0.021057	-0.030975	0.010681	0.05188	0.47195	-0.050049	-0.012665	-0.002899
29.451	0.003204	-0.019836	-0.002899	-0.022736	-0.001526	0.006104	-0.031586	0.011139	-0.02121	-0.00824	-0.010376	-0.002747	0.002136	-0.010071	-0.026703	-0.00824	0.038452	0.11871	0.26382	0.12878	0.057983	-0.12482	0.25635	-0.077972	-0.068054	0.001831	0.006104	0.32349	0.40283	0.27054	-0.002289	-0.002289
29.452	0.004425	0.009155	0.037994	-0.02121	-0.023193	0.005188	-0.032501	0.014801	-0.028992	-0.007629	-0.038147	-0.006714	0.004272	-0.020905	-0.040131	0.006409	0.004272	0.12817	0.035095	0.11047	0.22247	-0.15274	0.13397	0.42664	-0.027008	0.010223	-0.00351	0.24567	0.23529	0.19928	-0.000458	0.002594
29.453	0.007019	-0.032959	0.024872	0.004272	-0.016327	0.008392	-0.027313	0.00412	-0.038147	-0.003967	-0.025787	-0.002136	-0.007324	-0.008698	-0.012665	0.00885	-0.011749	0.071564	-0.011292	0.16586	0.18768	-0.030365	0.053558	0.61142	-0.013275	0.016632	0.023651	-0.11719	0.11627	-0.065155	0.001678	0.00061
